<svg id="Capa_1" enable-background="new 0 0 512 512" height="512" viewBox="0 0 512 512" width="512" xmlns="http://www.w3.org/2000/svg"><g><path d="m256 288v192c0 17.67-14.33 32-32 32h-192c-17.67 0-32-14.33-32-32v-192c0-17.67 14.33-32 32-32h192c17.67 0 32 14.33 32 32z" fill="#fee45a"/><path d="m84.48 512h-52.48c-17.67 0-32-14.33-32-32v-192c0-17.67 14.33-32 32-32h52.48c-17.89 0-32.44 14.25-32.96 32-.01.32-.01.65-.01.97v190.06c0 .32 0 .65.01.97.52 17.75 15.07 32 32.96 32z" fill="#fed402"/><path d="m224 303v162c0 8.28-6.71 15-15 15h-162c-8.28 0-15-6.72-15-15v-162c0-8.28 6.72-15 15-15h162c8.29 0 15 6.72 15 15z" fill="#fed402"/><path d="m51.52 480h-4.52c-8.28 0-15-6.72-15-15v-162c0-8.28 6.72-15 15-15h4.52c-.01.32-.01 191.68 0 192z" fill="#fac600"/><path d="m384 32v192c0 17.67-14.33 32-32 32h-192c-17.67 0-32-14.33-32-32v-192c0-17.67 14.33-32 32-32h192c17.67 0 32 14.33 32 32z" fill="#fe646f"/><path d="m212.48 256h-52.48c-17.67 0-32-14.33-32-32v-192c0-17.67 14.33-32 32-32h52.48c-17.89 0-32.44 14.25-32.96 32-.01.32-.01.65-.01.97v190.06c0 .32 0 .65.01.97.52 17.75 15.07 32 32.96 32z" fill="#fd4755"/><path d="m352 47v162c0 8.28-6.72 15-15 15h-162c-8.28 0-15-6.72-15-15v-162c0-8.28 6.72-15 15-15h162c8.28 0 15 6.72 15 15z" fill="#fd4755"/><path d="m179.52 224h-4.52c-8.28 0-15-6.72-15-15v-162c0-8.28 6.72-15 15-15h4.52c-.01.32-.01 191.68 0 192z" fill="#fb2b3a"/><path d="m512 288v192c0 17.67-14.33 32-32 32h-192c-17.67 0-32-14.33-32-32v-192c0-17.67 14.33-32 32-32h192c17.67 0 32 14.33 32 32z" fill="#60b7ff"/><path d="m340.48 512h-52.48c-17.67 0-32-14.33-32-32v-192c0-17.67 14.33-32 32-32h52.48c-17.89 0-32.44 14.25-32.96 32-.01.32-.01.65-.01.97v190.06c0 .32 0 .65.01.97.52 17.75 15.07 32 32.96 32z" fill="#26a6fe"/><path d="m480 303v162c0 8.28-6.72 15-15 15h-162c-8.28 0-15-6.72-15-15v-162c0-8.28 6.72-15 15-15h162c8.28 0 15 6.72 15 15z" fill="#26a6fe"/><path d="m307.52 480h-4.52c-8.28 0-15-6.72-15-15v-162c0-8.28 6.72-15 15-15h4.52c-.01.32-.01 191.68 0 192z" fill="#0593fc"/><path d="m172.73 383.999c6.731-5.822 10.997-14.423 10.997-24 0-17.494-14.232-31.726-31.726-31.726h-71.998c-4.267 0-7.726 3.459-7.726 7.726v96c0 4.268 3.459 7.726 7.726 7.726h71.999c17.493 0 31.726-14.232 31.726-31.726 0-9.577-4.266-18.178-10.998-24zm-44.728 7.726h24c8.973 0 16.273 7.301 16.273 16.274s-7.3 16.274-16.273 16.274h-64.273v-80.547h64.273c8.973 0 16.273 7.301 16.273 16.274s-7.3 16.274-16.273 16.274h-24c-4.267 0-7.726 3.459-7.726 7.726s3.459 7.725 7.726 7.725z" fill="#eaf6ff"/><g><path d="m408 439.725h-47.996c-17.495 0-31.729-14.234-31.729-31.73v-47.992c0-17.496 14.234-31.73 31.729-31.73h47.996c17.493 0 31.726 14.232 31.726 31.726 0 4.268-3.459 7.726-7.726 7.726s-7.726-3.459-7.726-7.726c0-8.973-7.3-16.274-16.273-16.274h-47.996c-8.975 0-16.277 7.302-16.277 16.278v47.992c0 8.976 7.302 16.278 16.277 16.278h47.995c8.973 0 16.273-7.301 16.273-16.274 0-4.268 3.459-7.726 7.726-7.726s7.726 3.459 7.726 7.726c.001 17.494-14.232 31.726-31.725 31.726z" fill="#eaf6ff"/></g><path d="m310.911 172.545-48-96c-1.308-2.617-3.984-4.271-6.91-4.271-2.927 0-5.602 1.654-6.91 4.271l-47.999 96c-1.908 3.817-.362 8.458 3.455 10.366 3.817 1.911 8.458.361 10.366-3.455l13.865-27.729h54.449l13.865 27.729c1.354 2.707 4.082 4.273 6.916 4.273 1.161 0 2.34-.264 3.449-.818 3.816-1.908 5.362-6.549 3.454-10.366zm-74.408-36.27 19.498-38.997 19.498 38.997z" fill="#eaf6ff"/></g></svg>